<svg xmlns="http://www.w3.org/2000/svg" xmlns:xlink="http://www.w3.org/1999/xlink" version="1.1" width="2050.23pt" height="584.73pt" viewBox="0 0 2050.23 584.73">
<defs>
<path id="font_1_397" d="M.3769989 .5169983V.41949464H.26600648V0H.12600708V.41949464H.029006958V.5169983H.12600708V.59199526C.12600708 .6336619 .13808696 .6659139 .1622467 .6887512 .18641663 .71158859 .22066753 .7230072 .2649994 .7230072H.38150025L.38200379 .6289978H.31300355C.29400126 .6289978 .28100077 .6243286 .27400209 .61499026 .2670034 .60566207 .26350404 .5904999 .26350404 .5695038V.5169983H.3769989M.6269989-.0084991459C.5900014-.0084991459 .5605876-.004084269 .5387573 .0047454836 .51692709 .013585408 .5007579 .025253296 .49024964 .039749147 .4797516 .054244996 .4730021 .07057699 .47000123 .08874512 .46700035 .106913249 .46549989 .12533061 .46549989 .14399719V.7429962H.6030121V.1605072C.6030121 .14083354 .60717776 .12499491 .61550906 .11299133 .62384036 .100997928 .63917037 .093836467 .661499 .09150696L.68600466 .08999634V.0034942628C.67634078 .00016784668 .66642257-.0026601155 .65625-.004989624 .64608767-.007329305 .6363373-.0084991459 .6269989-.0084991459Z"/>
<path id="font_1_300" d="M.28399659-.009994507C.23366292-.009994507 .18991089 .0007527669 .15274048 .022247315 .11558024 .043752035 .086751308 .07433573 .06625366 .11399841 .045756025 .15366109 .035507204 .200826 .035507204 .25549317 .035507204 .3098348 .045669557 .35733543 .06599426 .397995 .08632914 .43866477 .1150767 .47033183 .15223694 .49299623 .18940735 .5156606 .23366292 .5269928 .28500367 .5269928 .33566285 .5269928 .37949119 .51590988 .41648866 .4937439 .4534963 .47157798 .4820811 .44024659 .50224307 .39974977 .52241519 .35925294 .5325012 .3111674 .5325012 .25549317 .5325012 .20350139 .52275088 .15758769 .5032501 .117752078 .4837494 .077916469 .45550028 .046666463 .4185028 .024002076 .38150535 .0013376871 .33666993-.009994507 .28399659-.009994507M.28500367 .09449768C.31100465 .09449768 .33216859 .101994838 .34849549 .116989139 .36483256 .1319936 .37674967 .15207927 .38424684 .1772461 .391744 .20241292 .39549256 .23016358 .39549256 .26049806 .39549256 .28882853 .39207459 .31540934 .38523866 .34024049 .37841288 .3650818 .36691795 .38516746 .35075379 .40049745 .33458964 .41583763 .31267295 .4235077 .28500367 .4235077 .2583313 .4235077 .23682659 .41625468 .2204895 .40174867 .2041626 .3872528 .19208272 .36767069 .18424988 .34300233 .17641704 .31833396 .17250061 .29083253 .17250061 .26049806 .17250061 .23216756 .17599996 .2054189 .18299866 .18025208 .18999736 .15508525 .20166016 .13450115 .21798706 .118499759 .23432414 .102498378 .256663 .09449768 .28500367 .09449768Z"/>
<path id="font_1_223" d="M.28399659 .5269928C.32633464 .5269928 .36325074 .51840719 .39474488 .50123599 .42624919 .48407493 .45108543 .46066285 .46925355 .43099977 .48742167 .40133668 .4980062 .3680013 .5010071 .33099366H.38349916C.38116966 .34532676 .37616984 .35932414 .36849977 .37298585 .36082969 .3866577 .3500773 .39790855 .33624269 .40673829 .3224182 .41557823 .30533854 .41999818 .28500367 .41999818 .2496643 .41999818 .22107952 .4065806 .19924927 .37974549 .17741902 .35291038 .1665039 .3121643 .1665039 .25750733 .1665039 .20616658 .17708333 .16541036 .19824219 .13523865 .21941121 .10507711 .24916585 .08999634 .2875061 .08999634 .3078308 .08999634 .32474265 .09474691 .33824159 .10424805 .3517507 .11374918 .3623352 .12533061 .36999513 .13899231 .3776652 .15266419 .382665 .16583252 .3849945 .17849732H.49899293C.49666343 .14283245 .48624674 .11074829 .46774293 .08224487 .44924928 .05375163 .42441813 .031255086 .3932495 .014755249 .3620809-.0017445883 .32566325-.009994507 .28399659-.009994507 .23600261-.009994507 .19333904 .0005849202 .15600586 .021743775 .11867269 .0429128 .089253749 .07341512 .06774902 .11325073 .046254476 .15308635 .035507204 .20083618 .035507204 .25650025 .035507204 .3098348 .045756025 .35683189 .06625366 .39749146 .086751308 .43816123 .11558024 .46990968 .15274048 .49273683 .18991089 .51557418 .23366292 .5269928 .28399659 .5269928Z"/>
<path id="font_1_283" d="M.5585022 0H.4185028L.27600099 .227005 .20399475 .1499939V0H.06399536V.7429962H.20399475V.29800416L.3999939 .5169983H.5514984L.36349488 .31199647 .5585022 0Z"/>
<path id="font_2_286" d="M.20700073-.006500244C.17899578-.006500244 .15640767-.002670288 .13923645 .004989624 .1220754 .012659709 .10891215 .022994996 .099746707 .035995485 .09058126 .04899597 .08433024 .06391398 .08099365 .08074951 .07766724 .097585048 .07600403 .115000408 .07600403 .1329956V.7429962H.16749573V.14199829C.16749573 .115997318 .1725769 .09649658 .18273926 .083496097 .19291179 .070495609 .2071635 .06332906 .22549439 .06199646L.25349427 .06149292V.0014953613C.24583435-.00083414718 .23783367-.002746582 .22949219-.0042419435 .22116089-.005747477 .21366374-.006500244 .20700073-.006500244Z"/>
<path id="font_2_300" d="M.28199769-.009994507C.23432923-.009994507 .19266255 .00025431315 .15699768 .020751954 .1213328 .04124959 .093663539 .07132975 .07398987 .11099243 .054326375 .15066529 .04449463 .19916789 .04449463 .25650025 .04449463 .310496 .053660077 .35782878 .07199097 .39849855 .09033203 .4391683 .117248538 .4707489 .15274048 .49324037 .1882426 .515742 .23132833 .5269928 .28199769 .5269928 .32966615 .5269928 .3710836 .5165761 .40625 .4957428 .4414164 .47490946 .46866355 .44432578 .48799134 .4039917 .5073293 .36366783 .5169983 .314504 .5169983 .25650025 .5169983 .20383708 .5080821 .15750122 .49024964 .117492679 .4724172 .0774943 .44608055 .046244306 .41123963 .023742676 .3764089 .0012512207 .33332826-.009994507 .28199769-.009994507M.28199769 .06300354C.31300355 .06300354 .33917237 .07083639 .36050416 .086502078 .38183595 .10216776 .3980001 .12466431 .40899659 .1539917 .42000328 .18332927 .4255066 .21816509 .4255066 .25849916 .4255066 .2954966 .42066957 .3287455 .41099549 .35824586 .40133158 .38774619 .38591514 .41116334 .3647461 .4284973 .34357707 .4458313 .31599427 .4544983 .28199769 .4544983 .2506663 .4544983 .22416687 .44674684 .20249939 .4312439 .18083191 .41575114 .16441345 .39333598 .15324402 .3639984 .14208476 .33467103 .13650513 .2995046 .13650513 .25849916 .13650513 .22216289 .14150493 .18916321 .15150452 .15950012 .1615041 .12983704 .1771698 .1063385 .19850159 .08900452 .21983338 .07167053 .2476654 .06300354 .28199769 .06300354Z"/>
<path id="font_2_223" d="M.28250123 .5269928C.3194987 .5269928 .35282899 .51990768 .38249208 .5057373 .4121653 .49157716 .43641664 .47149659 .45524598 .4454956 .47408549 .41949464 .48583476 .3886617 .49049378 .35299684H.40849305C.40550233 .37132774 .3985901 .3879954 .38775636 .40299989 .3769226 .41800437 .3626709 .43000285 .34500123 .43899537 .32733155 .44799806 .30666606 .4524994 .28300477 .4524994 .2386729 .4524994 .20267232 .43649803 .17500305 .40449525 .14733379 .37250266 .13349915 .32350669 .13349915 .25750733 .13349915 .19783528 .14625041 .15008037 .17175293 .11424255 .19725545 .07841492 .23483785 .0605011 .28450013 .0605011 .3081716 .0605011 .3287557 .065083827 .34625245 .07424927 .36374919 .08341471 .37782798 .095581058 .38848878 .11074829 .39915977 .12591553 .4059957 .14216614 .40899659 .15950012H.48950196C.48516847 .12483215 .47350059 .094828289 .4544983 .069488529 .435496 .044158937 .41124473 .024576823 .38174439 .0107421879 .35224406-.0030822755 .319163-.009994507 .28250123-.009994507 .23616536-.009994507 .19507854 .00016784668 .15924073 .020492554 .123413089 .040827436 .095331829 .07082621 .07499695 .11048889 .054662069 .15016175 .04449463 .1988322 .04449463 .25650025 .04449463 .310496 .05374654 .3577423 .072250369 .39823915 .09075419 .43874613 .117752078 .47033183 .15324402 .49299623 .18874614 .5156606 .23183187 .5269928 .28250123 .5269928Z"/>
<path id="font_2_283" d="M.5305023 0H.43249513L.27049256 .25950624 .16850281 .15400696V0H.07600403V.7429962H.16850281V.25849916L.41149903 .5169983H.51750186L.33099366 .32000733 .5305023 0Z"/>
<path id="font_3_389" d="M.037994386 0V.057495119L.33000184 .44900514H.05050659V.5169983H.44000245V.45950318L.14849854 .067993167H.44250489V0H.037994386Z"/>
<path id="font_3_196" d="M.21949768-.009994507C.18616231-.009994507 .15666199-.004079183 .1309967 .007751465 .10533142 .019582114 .085245769 .036661786 .070739749 .05899048 .056243898 .081329349 .04899597 .10833231 .04899597 .13999939 .04899597 .19733174 .068995159 .23999532 .10899353 .2679901 .14900208 .2959951 .21317037 .31099955 .3014984 .31300355L.3939972 .31550599V.3560028C.3939972 .3876699 .38449607 .41275025 .36549378 .4312439 .34650169 .4497477 .31700135 .4588318 .2769928 .4584961 .24732971 .4584961 .22124736 .45166017 .19874573 .43798829 .1762441 .42432658 .16166179 .4019979 .15499878 .3710022H.07350159C.07550558 .4046631 .085006717 .43307496 .102005008 .4562378 .119003299 .4794108 .14275106 .49699403 .17324829 .5089874 .20374553 .520991 .23982747 .5269928 .28149415 .5269928 .3264974 .5269928 .36391703 .5206604 .39375306 .5079956 .42358909 .4953308 .44592286 .47666423 .4607544 .45199586 .47558595 .42732749 .4830017 .396993 .4830017 .36099244V0H.40400697L.39700318 .09700012C.3773295 .056666059 .3520762 .028747559 .3212433 .013244629 .29041038-.0022481282 .25649516-.009994507 .21949768-.009994507M.24749756 .056503297C.26483155 .056503297 .28207908 .05966695 .2992401 .06599426 .31641136 .07233175 .33207704 .08091736 .34623719 .0917511 .3604075 .10258484 .37182618 .11475118 .38049317 .12825012 .38916017 .14174907 .3936615 .15566509 .3939972 .16999817V.25849916L.31700135 .25700379C.27766419 .2563324 .2447459 .25224815 .21824646 .24475098 .19174703 .23725383 .1719157 .22575379 .15875244 .21025086 .14558919 .19474793 .13900757 .17433167 .13900757 .14900208 .13900757 .120000209 .14908855 .09733073 .16925049 .08099365 .18941243 .06466675 .2154948 .056503297 .24749756 .056503297M.34750367 .7230072H.4524994L.31600953 .5774994H.24450684L.34750367 .7230072Z"/>
<path id="font_3_283" d="M.5305023 0H.43249513L.27049256 .25950624 .16850281 .15400696V0H.07600403V.7429962H.16850281V.25849916L.41149903 .5169983H.51750186L.33099366 .32000733 .5305023 0Z"/>
<path id="font_3_286" d="M.20700073-.006500244C.17899578-.006500244 .15640767-.002670288 .13923645 .004989624 .1220754 .012659709 .10891215 .022994996 .099746707 .035995485 .09058126 .04899597 .08433024 .06391398 .08099365 .08074951 .07766724 .097585048 .07600403 .115000408 .07600403 .1329956V.7429962H.16749573V.14199829C.16749573 .115997318 .1725769 .09649658 .18273926 .083496097 .19291179 .070495609 .2071635 .06332906 .22549439 .06199646L.25349427 .06149292V.0014953613C.24583435-.00083414718 .23783367-.002746582 .22949219-.0042419435 .22116089-.005747477 .21366374-.006500244 .20700073-.006500244Z"/>
<path id="font_3_195" d="M.21949768-.009994507C.18616231-.009994507 .15666199-.004079183 .1309967 .007751465 .10533142 .019582114 .085245769 .036661786 .070739749 .05899048 .056243898 .081329349 .04899597 .10833231 .04899597 .13999939 .04899597 .19733174 .068995159 .23999532 .10899353 .2679901 .14900208 .2959951 .21317037 .31099955 .3014984 .31300355L.3939972 .31550599V.3560028C.3939972 .3876699 .38449607 .41275025 .36549378 .4312439 .34650169 .4497477 .31700135 .4588318 .2769928 .4584961 .24732971 .4584961 .22124736 .45166017 .19874573 .43798829 .1762441 .42432658 .16166179 .4019979 .15499878 .3710022H.07350159C.07550558 .4046631 .085006717 .43307496 .102005008 .4562378 .119003299 .4794108 .14275106 .49699403 .17324829 .5089874 .20374553 .520991 .23982747 .5269928 .28149415 .5269928 .3264974 .5269928 .36391703 .5206604 .39375306 .5079956 .42358909 .4953308 .44592286 .47666423 .4607544 .45199586 .47558595 .42732749 .4830017 .396993 .4830017 .36099244V0H.40400697L.39700318 .09700012C.3773295 .056666059 .3520762 .028747559 .3212433 .013244629 .29041038-.0022481282 .25649516-.009994507 .21949768-.009994507M.24749756 .056503297C.26483155 .056503297 .28207908 .05966695 .2992401 .06599426 .31641136 .07233175 .33207704 .08091736 .34623719 .0917511 .3604075 .10258484 .37182618 .11475118 .38049317 .12825012 .38916017 .14174907 .3936615 .15566509 .3939972 .16999817V.25849916L.31700135 .25700379C.27766419 .2563324 .2447459 .25224815 .21824646 .24475098 .19174703 .23725383 .1719157 .22575379 .15875244 .21025086 .14558919 .19474793 .13900757 .17433167 .13900757 .14900208 .13900757 .120000209 .14908855 .09733073 .16925049 .08099365 .18941243 .06466675 .2154948 .056503297 .24749756 .056503297Z"/>
<path id="font_3_229" d="M.2630005-.009994507C.19600423-.009994507 .14283753 .013005574 .103500369 .059005739 .06416321 .1050059 .04449463 .17217 .04449463 .26049806 .04449463 .3141683 .052408857 .3610026 .068237308 .40100099 .08407593 .44099937 .10766093 .47199504 .13899231 .49398805 .17033386 .5159912 .20933533 .5269928 .2559967 .5269928 .28066508 .5269928 .3025818 .52382406 .32174684 .5174866 .34091188 .51115927 .3574117 .50316366 .37124635 .49349977 .38508097 .48383586 .39649964 .47383628 .40550233 .46350099 .414505 .45316569 .4211731 .44366456 .4255066 .43499757V.7429962H.51849368V0H.44799806L.43800355 .10600281C.43466697 .09600321 .42933146 .08441671 .42199708 .071243289 .4146627 .058080038 .4043274 .045247396 .3909912 .03274536 .3776652 .0202535 .36058555 .01000468 .3397522 .0019989014 .31891886-.005996704 .29333497-.009994507 .2630005-.009994507M.27949525 .06100464C.3318329 .06100464 .36925254 .076919559 .39175416 .10874939 .41425578 .14057923 .4255066 .19266255 .4255066 .2649994 .4251709 .30533348 .42008464 .33966575 .4102478 .36799623 .40041099 .39633689 .3850759 .41792298 .36424256 .43275453 .3434092 .44758607 .31582643 .45500184 .28149415 .45500184 .23883057 .45500184 .2041626 .4398346 .17749024 .40950013 .15082805 .37916566 .13749695 .33099876 .13749695 .2649994 .13749695 .20033264 .14958191 .15016683 .17375183 .11450195 .19792176 .078837078 .23316956 .06100464 .27949525 .06100464Z"/>
<path id="font_3_293" d="M.07600403 0V.5169983H.16600037V.44200135C.17433167 .45633445 .18591309 .46975199 .20074463 .48225404 .21558635 .49475608 .23358663 .50483706 .25474549 .51249697 .27591453 .52016708 .30033366 .5240021 .32800294 .5240021 .3606669 .5240021 .39074708 .5175832 .4182434 .5047455 .4457499 .49191795 .46775309 .4717509 .48425294 .44424439 .50075277 .41674806 .5090027 .3813324 .5090027 .33799745V0H.4165039V.32899476C.4165039 .36932884 .4059194 .39924623 .38475038 .41874696 .36358134 .43824769 .33616639 .44799806 .3025055 .44799806 .2791697 .44799806 .25733439 .44424949 .23699951 .43675233 .21666463 .42925517 .2001648 .41792298 .1875 .40275575 .1748352 .3875885 .16850281 .36850486 .16850281 .34550477V0H.07600403Z"/>
<path id="font_3_267" d="M.17300415 .5169983V0H.083999637V.5169983H.17300415M.16299439 .7230072H.26449586L.16249085 .5774994 .09249878 .5780029 .16299439 .7230072Z"/>
<path id="font_3_526" d="M0 0Z"/>
<path id="font_3_300" d="M.28199769-.009994507C.23432923-.009994507 .19266255 .00025431315 .15699768 .020751954 .1213328 .04124959 .093663539 .07132975 .07398987 .11099243 .054326375 .15066529 .04449463 .19916789 .04449463 .25650025 .04449463 .310496 .053660077 .35782878 .07199097 .39849855 .09033203 .4391683 .117248538 .4707489 .15274048 .49324037 .1882426 .515742 .23132833 .5269928 .28199769 .5269928 .32966615 .5269928 .3710836 .5165761 .40625 .4957428 .4414164 .47490946 .46866355 .44432578 .48799134 .4039917 .5073293 .36366783 .5169983 .314504 .5169983 .25650025 .5169983 .20383708 .5080821 .15750122 .49024964 .117492679 .4724172 .0774943 .44608055 .046244306 .41123963 .023742676 .3764089 .0012512207 .33332826-.009994507 .28199769-.009994507M.28199769 .06300354C.31300355 .06300354 .33917237 .07083639 .36050416 .086502078 .38183595 .10216776 .3980001 .12466431 .40899659 .1539917 .42000328 .18332927 .4255066 .21816509 .4255066 .25849916 .4255066 .2954966 .42066957 .3287455 .41099549 .35824586 .40133158 .38774619 .38591514 .41116334 .3647461 .4284973 .34357707 .4458313 .31599427 .4544983 .28199769 .4544983 .2506663 .4544983 .22416687 .44674684 .20249939 .4312439 .18083191 .41575114 .16441345 .39333598 .15324402 .3639984 .14208476 .33467103 .13650513 .2995046 .13650513 .25849916 .13650513 .22216289 .14150493 .18916321 .15150452 .15950012 .1615041 .12983704 .1771698 .1063385 .19850159 .08900452 .21983338 .07167053 .2476654 .06300354 .28199769 .06300354Z"/>
<path id="font_3_256" d="M.29449464-.17100525C.21316529-.17100525 .1499176-.1592509 .10475159-.13574219 .05958557-.11224365 .037002565-.07866415 .037002565-.035003663 .037002565-.016337077 .04133606-.00042215983 .05000305 .012741089 .058670045 .02591451 .069000247 .036834718 .08099365 .04550171 .09299723 .0541687 .104166667 .061086019 .11450195 .06625366 .12483724 .0714213 .13150533 .07516988 .13450623 .07749939 .12884014 .080835979 .12175497 .085001628 .11325073 .08999634 .1047465 .09500122 .097325649 .10166931 .09098816 .11000061 .08466085 .11833191 .08149719 .12916565 .08149719 .14250183 .08149719 .15883892 .08916219 .1738383 .10449219 .1875 .11983236 .2011617 .14250183 .21132915 .17250061 .21800232 .14216614 .23333232 .118499759 .2536621 .101501468 .2789917 .084503177 .30433146 .07600403 .3318329 .07600403 .36149598 .07600403 .39483134 .08508301 .42383323 .10324097 .4485016 .121409099 .47316996 .14732869 .49208579 .18099976 .505249 .21467082 .5184123 .2546692 .5249939 .30099488 .5249939 .33466593 .5249939 .3630015 .52107748 .3860016 .5132446 .40900169 .5054118 .43033348 .49432884 .44999696 .47999574 .45532737 .48233543 .46374003 .48592124 .475235 .49075318 .4867401 .4955851 .49949137 .50083419 .51348879 .50650027 .52749636 .5121663 .5405833 .5175832 .55274966 .52275088 .56491598 .5279185 .5746663 .5318349 .58200076 .5345001L.5814972 .44900514 .4909973 .43200685C.4960022 .42133586 .5000865 .40966798 .5032501 .39700318 .50641378 .38433839 .5079956 .37250266 .5079956 .36149598 .5079956 .3311615 .5000763 .30366007 .48423768 .2789917 .4684092 .2543335 .44449363 .23467 .41249085 .22000122 .38049827 .20533245 .34049989 .19799805 .29249574 .19799805 .28849793 .19799805 .28341676 .19807942 .2772522 .19824219 .27108766 .19841512 .26583863 .19866944 .26150514 .19900513 .22616577 .19799805 .201828 .19407654 .18849182 .1872406 .17516582 .18041484 .16850281 .1728363 .16850281 .164505 .16850281 .15483094 .17599996 .14816284 .19099427 .14450073 .20599874 .14083863 .23150127 .13766988 .26750184 .1349945 .28050233 .1343333 .29658509 .13349915 .31575013 .13249207 .33491517 .13149517 .35616557 .13016255 .37950135 .12849427 .4338328 .12516785 .47566224 .111338298 .5049896 .087005618 .5343272 .062672939 .548996 .02983602 .548996-.011505127 .548996-.058502199 .5279948-.096832279 .48599244-.12649536 .44400025-.15616863 .38016764-.17100525 .29449464-.17100525M.31100465-.11149597C.3586731-.11149597 .39517213-.10432943 .4205017-.08999634 .4458313-.075663249 .4584961-.05399577 .4584961-.024993897 .4584961-.0046691896 .45074464 .012161255 .4352417 .025497437 .41974894 .03883362 .39616905 .046498617 .36450196 .04849243L.21949768 .057998659C.20649719 .058670045 .19299825 .055419923 .17900086 .04824829 .16500347 .041086835 .15308635 .03116862 .14324951 .018493653 .13341268 .0058288576 .12849427-.008504231 .12849427-.024505616 .12849427-.05183919 .14341228-.07317098 .17324829-.08850098 .2030843-.10383097 .2490031-.11149597 .31100465-.11149597M.29499818 .25750733C.33233134 .25750733 .3624115 .26616923 .38523866 .28349305 .40807597 .30082704 .41949464 .3264974 .41949464 .36050416 .41949464 .39517213 .40807597 .42175294 .38523866 .44024659 .3624115 .4587504 .33233134 .46800233 .29499818 .46800233 .25732932 .46800233 .22691345 .4587504 .20375061 .44024659 .18058777 .42175294 .16900635 .39517213 .16900635 .36050416 .16900635 .32783 .18000286 .30249534 .20199585 .28450013 .22399903 .2665049 .2549998 .25750733 .29499818 .25750733Z"/>
<path id="font_3_508" d="M.9315033 .2875061V.2144928L.1855011 .21400452V.28700257L.9315033 .2875061Z"/>
<path id="font_3_225" d="M.28250123 .5269928C.3194987 .5269928 .35282899 .51990768 .38249208 .5057373 .4121653 .49157716 .43641664 .47149659 .45524598 .4454956 .47408549 .41949464 .48583476 .3886617 .49049378 .35299684H.40849305C.40550233 .37132774 .3985901 .3879954 .38775636 .40299989 .3769226 .41800437 .3626709 .43000285 .34500123 .43899537 .32733155 .44799806 .30666606 .4524994 .28300477 .4524994 .2386729 .4524994 .20267232 .43649803 .17500305 .40449525 .14733379 .37250266 .13349915 .32350669 .13349915 .25750733 .13349915 .19783528 .14625041 .15008037 .17175293 .11424255 .19725545 .07841492 .23483785 .0605011 .28450013 .0605011 .3081716 .0605011 .3287557 .065083827 .34625245 .07424927 .36374919 .08341471 .37782798 .095581058 .38848878 .11074829 .39915977 .12591553 .4059957 .14216614 .40899659 .15950012H.48950196C.48516847 .12483215 .47350059 .094828289 .4544983 .069488529 .435496 .044158937 .41124473 .024576823 .38174439 .0107421879 .35224406-.0030822755 .319163-.009994507 .28250123-.009994507 .23616536-.009994507 .19507854 .00016784668 .15924073 .020492554 .123413089 .040827436 .095331829 .07082621 .07499695 .11048889 .054662069 .15016175 .04449463 .1988322 .04449463 .25650025 .04449463 .310496 .05374654 .3577423 .072250369 .39823915 .09075419 .43874613 .117752078 .47033183 .15324402 .49299623 .18874614 .5156606 .23183187 .5269928 .28250123 .5269928M.25 .5774994 .12399292 .69000247H.20700073L.28250123 .62249758 .3524933 .69000247H.4394989L.3164978 .5774994H.25Z"/>
<path id="font_3_234" d="M.14250183 .23699951C.14250183 .20433553 .1479187 .17475383 .15875244 .1482544 .16958618 .12175497 .18608602 .10066732 .20825196 .084991458 .23041789 .06932577 .25816856 .06149292 .2915039 .06149292 .32450358 .06149292 .35292054 .06915792 .37675477 .084487918 .400589 .09982809 .41583763 .12199911 .4225006 .15100098H.5099945C.5036672 .115997318 .4896698 .08649699 .46800233 .0625 .44633485 .03850301 .42016603 .020421347 .38949586 .008255005 .35883586-.0039113366 .32683818-.009994507 .2935028-.009994507 .24516297-.009994507 .20265706 .00050354006 .1659851 .021499634 .12932332 .042495729 .10065714 .07266235 .07998657 .11199951 .059326173 .15133667 .04899597 .19850159 .04899597 .25349427 .04899597 .3078359 .058329267 .35550437 .07699585 .39649964 .09566244 .4374949 .12274679 .46949259 .1582489 .49249269 .19375102 .51549276 .23650106 .5269928 .28649903 .5269928 .3351644 .5269928 .3763275 .51649478 .4099884 .49549867 .44365946 .47450257 .46924339 .44492088 .4867401 .40675355 .504247 .3685862 .5130005 .32333375 .5130005 .2709961V.23699951H.14250183M.14300537 .2994995H.42399598C.42399598 .3291626 .41899619 .35591126 .40899659 .37974549 .39899699 .4035797 .38374839 .42241416 .36325074 .43624879 .34275309 .4500834 .31700135 .45700074 .28599549 .45700074 .2536672 .45700074 .22691854 .44924928 .20574951 .43374635 .18458049 .41825358 .16874695 .39842225 .1582489 .37425233 .14775086 .3500824 .14266968 .3251648 .14300537 .2994995Z"/>
<path id="font_3_331" d="M.07600403 0V.5169983H.164505V.41749574C.173172 .4421641 .18533834 .46258036 .20100403 .4787445 .21666973 .49491883 .23458354 .5070038 .25474549 .5149994 .2749176 .522995 .2958374 .5269928 .31750489 .5269928 .3251648 .5269928 .33266197 .5264943 .33999635 .52549746 .34733073 .52450057 .35299684 .5228322 .35699464 .52049258V.43099977C.3519999 .43332926 .34558616 .4349111 .3377533 .43574525 .32992045 .43657939 .32333375 .43699647 .31799317 .43699647 .29733277 .43832908 .27799989 .43707786 .2599945 .4332428 .24199932 .42941795 .22616577 .4228363 .2124939 .41349793 .1988322 .4041697 .18808492 .391922 .18025208 .37675477 .17241924 .36158753 .16850281 .34317018 .16850281 .3215027V0H.07600403Z"/>
<path id="font_3_222" d="M.33200074-.009994507C.30166627-.009994507 .27608238-.005996704 .25524903 .0019989014 .2344157 .01000468 .21733094 .0202535 .20399475 .03274536 .19066875 .045247396 .18033855 .058080038 .17300415 .071243289 .16566976 .08441671 .16033428 .09600321 .15699768 .10600281L.14700318 0H.07600403V.7429962H.16949463V.43499757C.17382813 .44366456 .18040975 .45316569 .1892395 .46350099 .19807942 .47383628 .20949809 .48383586 .22349549 .49349977 .23750305 .50316366 .25408937 .51115927 .2732544 .5174866 .29241944 .52382406 .31433616 .5269928 .33900453 .5269928 .40367127 .5269928 .4550883 .50449118 .49325563 .45948792 .5314229 .41449485 .5505066 .3481649 .5505066 .26049806 .5505066 .20616658 .5423381 .15874736 .526001 .11824036 .5096639 .07774353 .48532615 .046244306 .45298768 .023742676 .4206594 .0012512207 .3803304-.009994507 .33200074-.009994507M.31550599 .06100464C.35749818 .06100464 .3916626 .07725016 .41799928 .10974121 .44433595 .14224243 .45750428 .19399517 .45750428 .2649994 .45750428 .32533265 .44525147 .37208048 .42074586 .40524293 .3962504 .43841554 .36050416 .45500184 .31350709 .45500184 .27916465 .45500184 .25157676 .44758607 .23074341 .43275453 .20991008 .41792298 .194575 .39633689 .18473816 .36799623 .1749115 .33966575 .16983032 .30533348 .16949463 .2649994 .16949463 .19266255 .18074544 .14057923 .20324707 .10874939 .2257487 .076919559 .26316834 .06100464 .31550599 .06100464Z"/>
<clipPath id="clip_4">
<path transform="matrix(5,0,0,-5,-1276.86,1781.225)" d="M0 595.276H841.89V0H0Z"/>
</clipPath>
</defs>
<g>
<g id="layer_1" data-name="Layer 1">
<path transform="matrix(5,0,0,-5,-882.3585,1639.4929)" d="M0 0V538.583Z" fill="#ffffff"/>
<path transform="matrix(5,0,0,-5,-882.3585,1639.4924)" stroke-width="1" stroke-linecap="butt" stroke-miterlimit="10" stroke-linejoin="miter" fill="none" stroke="#231f20" d="M0 0V538.583"/>
<use data-text="&#xfb02;" xlink:href="#font_1_397" transform="matrix(0,-125,-125,-0,-1021.3595,1497.768)" fill="#2b2f31"/>
<use data-text="o" xlink:href="#font_1_300" transform="matrix(0,-125,-125,-0,-1021.3595,1408.143)" fill="#2b2f31"/>
<use data-text="c" xlink:href="#font_1_223" transform="matrix(0,-125,-125,-0,-1021.3595,1337.143)" fill="#2b2f31"/>
<use data-text="k" xlink:href="#font_1_283" transform="matrix(0,-125,-125,-0,-1021.3595,1269.643)" fill="#2b2f31"/>
<use data-text="l" xlink:href="#font_2_286" transform="matrix(0,-125,-125,-0,-1021.3595,1197.268)" fill="#2b2f31"/>
<use data-text="o" xlink:href="#font_2_300" transform="matrix(0,-125,-125,-0,-1021.3595,1161.143)" fill="#2b2f31"/>
<use data-text="c" xlink:href="#font_2_223" transform="matrix(0,-125,-125,-0,-1021.3595,1090.893)" fill="#2b2f31"/>
<use data-text="k" xlink:href="#font_2_283" transform="matrix(0,-125,-125,-0,-1021.3595,1023.51797)" fill="#2b2f31"/>
<use data-text="z" xlink:href="#font_3_389" transform="matrix(0,-125,-125,-0,-1043.4845,542.39309)" fill="#2b2f31"/>
<use data-text="&#x00e1;" xlink:href="#font_3_196" transform="matrix(0,-125,-125,-0,-1043.4845,482.20545)" fill="#2b2f31"/>
<use data-text="k" xlink:href="#font_3_283" transform="matrix(0,-125,-125,-0,-1043.4845,411.70545)" fill="#2b2f31"/>
<use data-text="l" xlink:href="#font_3_286" transform="matrix(0,-125,-125,-0,-1043.4845,341.20545)" fill="#2b2f31"/>
<use data-text="a" xlink:href="#font_3_195" transform="matrix(0,-125,-125,-0,-1043.4845,304.64295)" fill="#2b2f31"/>
<use data-text="d" xlink:href="#font_3_229" transform="matrix(0,-125,-125,-0,-1043.4845,234.14295)" fill="#2b2f31"/>
<use data-text="n" xlink:href="#font_3_293" transform="matrix(0,-125,-125,-0,-1043.4845,158.9679)" fill="#2b2f31"/>
<use data-text="&#x00ed;" xlink:href="#font_3_267" transform="matrix(0,-125,-125,-0,-1043.4845,86.842899)" fill="#2b2f31"/>
<use data-text=" " xlink:href="#font_3_526" transform="matrix(0,-125,-125,-0,-1043.4845,54.718019)" fill="#2b2f31"/>
<use data-text="l" xlink:href="#font_3_286" transform="matrix(0,-125,-125,-0,-1043.4845,25.968018)" fill="#2b2f31"/>
<use data-text="o" xlink:href="#font_3_300" transform="matrix(0,-125,-125,-0,-1043.4845,-10.15686)" fill="#2b2f31"/>
<use data-text="g" xlink:href="#font_3_256" transform="matrix(0,-125,-125,-0,-1043.4845,-79.96936)" fill="#2b2f31"/>
<use data-text="o" xlink:href="#font_3_300" transform="matrix(0,-125,-125,-0,-1043.4845,-155.53174)" fill="#2b2f31"/>
<use data-text="&#x2014;" xlink:href="#font_3_508" transform="matrix(0,-125,-125,-0,-1043.4845,-227.90662)" fill="#2b2f31"/>
<use data-text="&#x010d;" xlink:href="#font_3_225" transform="matrix(0,-125,-125,-0,-1043.4845,-368.40663)" fill="#2b2f31"/>
<use data-text="e" xlink:href="#font_3_234" transform="matrix(0,-125,-125,-0,-1043.4845,-435.78163)" fill="#2b2f31"/>
<use data-text="r" xlink:href="#font_3_331" transform="matrix(0,-125,-125,-0,-1043.4845,-506.15687)" fill="#2b2f31"/>
<use data-text="n" xlink:href="#font_3_293" transform="matrix(0,-125,-125,-0,-1043.4845,-554.5316)" fill="#2b2f31"/>
<use data-text="o" xlink:href="#font_3_300" transform="matrix(0,-125,-125,-0,-1043.4845,-626.6566)" fill="#2b2f31"/>
<use data-text="b" xlink:href="#font_3_222" transform="matrix(0,-125,-125,-0,-1043.4845,-696.9066)" fill="#2b2f31"/>
<use data-text="&#x00ed;" xlink:href="#font_3_267" transform="matrix(0,-125,-125,-0,-1043.4845,-771.2816)" fill="#2b2f31"/>
<use data-text="l" xlink:href="#font_3_286" transform="matrix(0,-125,-125,-0,-1043.4845,-804.2191)" fill="#2b2f31"/>
<use data-text="&#x00e1;" xlink:href="#font_3_196" transform="matrix(0,-125,-125,-0,-1043.4845,-840.7816)" fill="#2b2f31"/>
<g clip-path="url(#clip_4)">
<path transform="matrix(5,0,0,-5,39.059938,175.77039)" d="M0 0V-39.057C0-53.284 11.932-66.565 31.241-73.952 50.551-66.564 62.483-53.284 62.483-39.057L62.495 0ZM31.241-82.275 29.911-81.792C6.643-73.363-7.812-56.988-7.812-39.057V7.812H70.309L70.294-39.058C70.294-56.987 55.84-73.363 32.572-81.792Z" fill="#231f20"/>
<path transform="matrix(5,0,0,-5,302.71449,107.41455)" d="M0 0H-7.812C-7.812 7.538-13.944 13.671-21.483 13.671-29.021 13.671-35.154 7.538-35.154 0H-42.965C-42.965 11.846-33.329 21.483-21.483 21.483-9.637 21.483 0 11.846 0 0" fill="#231f20"/>
<path transform="matrix(5,0,0,-5,654.54397,412.1704)" d="M0 0C-2.792 0-5.013 .334-6.66 1-8.309 1.667-9.529 2.548-10.322 3.642-11.114 4.736-11.624 5.969-11.851 7.341-12.076 8.712-12.19 10.102-12.19 11.512V55.217H-1.811V12.757C-1.811 11.272-1.496 10.077-.867 9.171-.239 8.266 .919 7.724 2.605 7.549L4.454 7.435V.906C3.725 .654 2.976 .44 2.209 .264 1.441 .089 .705 0 0 0M-18.87 39.667V32.307H-27.249V.642H-37.817V32.307H-45.139V39.667H-37.817V45.328C-37.817 48.473-36.906 50.907-35.08 52.631-33.257 54.354-30.671 55.217-27.325 55.217H-18.531L-18.493 48.121H-23.702C-25.136 48.121-26.117 47.768-26.646 47.064-27.173 46.359-27.437 45.215-27.437 43.629V39.667Z" fill="#231f20"/>
<path transform="matrix(5,0,0,-5,796.08486,373.297)" d="M0 0C1.962 0 3.56 .566 4.793 1.699 6.026 2.831 6.926 4.346 7.492 6.246 8.058 8.146 8.341 10.241 8.341 12.53 8.341 14.669 8.082 16.676 7.567 18.55 7.051 20.424 6.182 21.94 4.962 23.099 3.742 24.255 2.088 24.834 0 24.834-2.014 24.834-3.637 24.287-4.869 23.193-6.103 22.098-7.015 20.619-7.606 18.758-8.196 16.896-8.492 14.82-8.492 12.53-8.492 10.392-8.228 8.372-7.699 6.473-7.172 4.573-6.291 3.02-5.057 1.812-3.825 .604-2.139 0 0 0M-.076-7.888C-3.876-7.888-7.177-7.077-9.982-5.454-12.789-3.83-14.965-1.522-16.512 1.472-18.059 4.466-18.834 8.026-18.834 12.153-18.834 16.254-18.066 19.84-16.532 22.91-14.997 25.979-12.826 28.369-10.021 30.081-7.215 31.792-3.876 32.647 0 32.647 3.823 32.647 7.133 31.81 9.926 30.138 12.719 28.464 14.876 26.099 16.398 23.042 17.921 19.985 18.682 16.355 18.682 12.153 18.682 8.228 17.947 4.762 16.474 1.755 15.002-1.252 12.87-3.611 10.077-5.322 7.284-7.033 3.899-7.888-.076-7.888" fill="#231f20"/>
<path transform="matrix(5,0,0,-5,1010.07656,210.06238)" d="M0 0C3.196 0 5.982-.648 8.36-1.943 10.738-3.24 12.612-5.007 13.983-7.246 15.354-9.486 16.154-12.002 16.38-14.795H7.511C7.334-13.713 6.957-12.657 6.379-11.624 5.799-10.593 4.987-9.744 3.944-9.077 2.899-8.411 1.61-8.077 .076-8.077-2.592-8.077-4.749-9.09-6.398-11.115-8.045-13.14-8.87-16.216-8.87-20.343-8.87-24.218-8.071-27.294-6.472-29.571-4.876-31.848-2.63-32.986 .264-32.986 1.798-32.986 3.076-32.628 4.095-31.91 5.113-31.193 5.913-30.32 6.491-29.288 7.07-28.256 7.448-27.263 7.624-26.306H16.229C16.052-28.999 15.266-31.42 13.87-33.572 12.473-35.723 10.599-37.421 8.246-38.666 5.894-39.912 3.145-40.535 0-40.535-3.623-40.535-6.845-39.736-9.662-38.138-12.48-36.54-14.7-34.238-16.324-31.231-17.947-28.225-18.759-24.621-18.759-20.418-18.759-16.393-17.984-12.845-16.437-9.775-14.89-6.706-12.714-4.309-9.907-2.585-7.101-.862-3.8 0 0 0" fill="#231f20"/>
<path transform="matrix(5,0,0,-5,1317.4835,408.9624)" d="M0 0H-10.568L-21.325 17.135-26.76 11.323V0H-37.328V54.575H-26.76V22.494L-11.965 39.025H-.529L-14.719 23.551Z" fill="#231f20"/>
<path transform="matrix(5,0,0,-5,1403.3427,411.41493)" d="M0 0C-2.113 0-3.818 .289-5.114 .868-6.41 1.447-7.404 2.226-8.095 3.208-8.787 4.189-9.26 5.315-9.511 6.586-9.763 7.856-9.888 9.171-9.888 10.53V55.065H-2.981V11.209C-2.981 9.247-2.598 7.775-1.83 6.794-1.063 5.812 .012 5.271 1.397 5.171L3.51 5.133V.604C2.932 .428 2.327 .283 1.698 .17 1.069 .056 .503 0 0 0" fill="#231f20"/>
<path transform="matrix(5,0,0,-5,1540.7208,385.18446)" d="M0 0C2.34 0 4.315 .591 5.925 1.774 7.536 2.956 8.756 4.655 9.587 6.869 10.417 9.083 10.831 11.712 10.831 14.757 10.831 17.55 10.467 20.06 9.738 22.287 9.007 24.514 7.843 26.28 6.247 27.589 4.648 28.898 2.566 29.552 0 29.552-2.366 29.552-4.366 28.967-6.001 27.797-7.637 26.627-8.876 24.934-9.719 22.721-10.562 20.506-10.983 17.852-10.983 14.757-10.983 12.014-10.606 9.524-9.851 7.284-9.096 5.044-7.913 3.27-6.303 1.963-4.693 .654-2.592 0 0 0M0-5.511C-3.598-5.511-6.743-4.737-9.436-3.189-12.128-1.642-14.217 .629-15.7 3.623-17.186 6.617-17.927 10.278-17.927 14.606-17.927 18.682-17.236 22.255-15.852 25.325-14.468 28.394-12.436 30.778-9.756 32.477-7.077 34.175-3.825 35.024 0 35.024 3.598 35.024 6.724 34.238 9.379 32.665 12.034 31.093 14.09 28.784 15.549 25.74 17.008 22.695 17.739 18.984 17.739 14.606 17.739 10.63 17.065 7.133 15.72 4.114 14.373 1.094 12.385-1.265 9.756-2.963 7.126-4.661 3.874-5.511 0-5.511" fill="#231f20"/>
<path transform="matrix(5,0,0,-5,1753.0155,210.06238)" d="M0 0C2.793 0 5.31-.534 7.549-1.604 9.789-2.674 11.619-4.189 13.041-6.152 14.461-8.115 15.349-10.442 15.702-13.134H9.511C9.286-11.751 8.762-10.492 7.945-9.36 7.128-8.227 6.052-7.322 4.718-6.643 3.384-5.963 1.824-5.623 .038-5.623-3.308-5.623-6.026-6.831-8.114-9.247-10.202-11.662-11.246-15.361-11.246-20.343-11.246-24.847-10.285-28.451-8.359-31.156-6.434-33.861-3.598-35.213 .151-35.213 1.939-35.213 3.492-34.868 4.813-34.175 6.134-33.484 7.196-32.565 8.001-31.42 8.806-30.276 9.323-29.049 9.55-27.74H15.626C15.299-30.357 14.419-32.622 12.984-34.534 11.55-36.446 9.719-37.925 7.493-38.969 5.266-40.012 2.768-40.535 0-40.535-3.496-40.535-6.599-39.768-9.302-38.232-12.007-36.698-14.127-34.434-15.662-31.439-17.198-28.445-17.964-24.771-17.964-20.418-17.964-16.342-17.267-12.775-15.869-9.719-14.474-6.661-12.435-4.277-9.756-2.566-7.075-.855-3.825 0 0 0" fill="#231f20"/>
<path transform="matrix(5,0,0,-5,2050.2286,408.9624)" d="M0 0H-7.397L-19.626 19.588-27.325 11.625V0H-34.307V54.575H-27.325V19.513L-8.982 39.025H-.981L-15.059 24.155Z" fill="#231f20"/>
</g>
</g>
</g>
</svg>
