<svg xmlns="http://www.w3.org/2000/svg" xmlns:xlink="http://www.w3.org/1999/xlink" version="1.1" width="600.45486pt" height="898.86996pt" viewBox="0 0 600.45486 898.86996">
<defs>
<clipPath id="clip_1">
<path transform="matrix(5,0,0,-5,-2001.75,1939.475)" d="M0 595.276H841.89V0H0Z"/>
</clipPath>
<path id="font_2_397" d="M.3769989 .5169983V.41949464H.26600648V0H.12600708V.41949464H.029006958V.5169983H.12600708V.59199526C.12600708 .6336619 .13808696 .6659139 .1622467 .6887512 .18641663 .71158859 .22066753 .7230072 .2649994 .7230072H.38150025L.38200379 .6289978H.31300355C.29400126 .6289978 .28100077 .6243286 .27400209 .61499026 .2670034 .60566207 .26350404 .5904999 .26350404 .5695038V.5169983H.3769989M.6269989-.0084991459C.5900014-.0084991459 .5605876-.004084269 .5387573 .0047454836 .51692709 .013585408 .5007579 .025253296 .49024964 .039749147 .4797516 .054244996 .4730021 .07057699 .47000123 .08874512 .46700035 .106913249 .46549989 .12533061 .46549989 .14399719V.7429962H.6030121V.1605072C.6030121 .14083354 .60717776 .12499491 .61550906 .11299133 .62384036 .100997928 .63917037 .093836467 .661499 .09150696L.68600466 .08999634V.0034942628C.67634078 .00016784668 .66642257-.0026601155 .65625-.004989624 .64608767-.007329305 .6363373-.0084991459 .6269989-.0084991459Z"/>
<path id="font_2_300" d="M.28399659-.009994507C.23366292-.009994507 .18991089 .0007527669 .15274048 .022247315 .11558024 .043752035 .086751308 .07433573 .06625366 .11399841 .045756025 .15366109 .035507204 .200826 .035507204 .25549317 .035507204 .3098348 .045669557 .35733543 .06599426 .397995 .08632914 .43866477 .1150767 .47033183 .15223694 .49299623 .18940735 .5156606 .23366292 .5269928 .28500367 .5269928 .33566285 .5269928 .37949119 .51590988 .41648866 .4937439 .4534963 .47157798 .4820811 .44024659 .50224307 .39974977 .52241519 .35925294 .5325012 .3111674 .5325012 .25549317 .5325012 .20350139 .52275088 .15758769 .5032501 .117752078 .4837494 .077916469 .45550028 .046666463 .4185028 .024002076 .38150535 .0013376871 .33666993-.009994507 .28399659-.009994507M.28500367 .09449768C.31100465 .09449768 .33216859 .101994838 .34849549 .116989139 .36483256 .1319936 .37674967 .15207927 .38424684 .1772461 .391744 .20241292 .39549256 .23016358 .39549256 .26049806 .39549256 .28882853 .39207459 .31540934 .38523866 .34024049 .37841288 .3650818 .36691795 .38516746 .35075379 .40049745 .33458964 .41583763 .31267295 .4235077 .28500367 .4235077 .2583313 .4235077 .23682659 .41625468 .2204895 .40174867 .2041626 .3872528 .19208272 .36767069 .18424988 .34300233 .17641704 .31833396 .17250061 .29083253 .17250061 .26049806 .17250061 .23216756 .17599996 .2054189 .18299866 .18025208 .18999736 .15508525 .20166016 .13450115 .21798706 .118499759 .23432414 .102498378 .256663 .09449768 .28500367 .09449768Z"/>
<path id="font_2_223" d="M.28399659 .5269928C.32633464 .5269928 .36325074 .51840719 .39474488 .50123599 .42624919 .48407493 .45108543 .46066285 .46925355 .43099977 .48742167 .40133668 .4980062 .3680013 .5010071 .33099366H.38349916C.38116966 .34532676 .37616984 .35932414 .36849977 .37298585 .36082969 .3866577 .3500773 .39790855 .33624269 .40673829 .3224182 .41557823 .30533854 .41999818 .28500367 .41999818 .2496643 .41999818 .22107952 .4065806 .19924927 .37974549 .17741902 .35291038 .1665039 .3121643 .1665039 .25750733 .1665039 .20616658 .17708333 .16541036 .19824219 .13523865 .21941121 .10507711 .24916585 .08999634 .2875061 .08999634 .3078308 .08999634 .32474265 .09474691 .33824159 .10424805 .3517507 .11374918 .3623352 .12533061 .36999513 .13899231 .3776652 .15266419 .382665 .16583252 .3849945 .17849732H.49899293C.49666343 .14283245 .48624674 .11074829 .46774293 .08224487 .44924928 .05375163 .42441813 .031255086 .3932495 .014755249 .3620809-.0017445883 .32566325-.009994507 .28399659-.009994507 .23600261-.009994507 .19333904 .0005849202 .15600586 .021743775 .11867269 .0429128 .089253749 .07341512 .06774902 .11325073 .046254476 .15308635 .035507204 .20083618 .035507204 .25650025 .035507204 .3098348 .045756025 .35683189 .06625366 .39749146 .086751308 .43816123 .11558024 .46990968 .15274048 .49273683 .18991089 .51557418 .23366292 .5269928 .28399659 .5269928Z"/>
<path id="font_2_283" d="M.5585022 0H.4185028L.27600099 .227005 .20399475 .1499939V0H.06399536V.7429962H.20399475V.29800416L.3999939 .5169983H.5514984L.36349488 .31199647 .5585022 0Z"/>
<path id="font_3_286" d="M.20700073-.006500244C.17899578-.006500244 .15640767-.002670288 .13923645 .004989624 .1220754 .012659709 .10891215 .022994996 .099746707 .035995485 .09058126 .04899597 .08433024 .06391398 .08099365 .08074951 .07766724 .097585048 .07600403 .115000408 .07600403 .1329956V.7429962H.16749573V.14199829C.16749573 .115997318 .1725769 .09649658 .18273926 .083496097 .19291179 .070495609 .2071635 .06332906 .22549439 .06199646L.25349427 .06149292V.0014953613C.24583435-.00083414718 .23783367-.002746582 .22949219-.0042419435 .22116089-.005747477 .21366374-.006500244 .20700073-.006500244Z"/>
<path id="font_3_300" d="M.28199769-.009994507C.23432923-.009994507 .19266255 .00025431315 .15699768 .020751954 .1213328 .04124959 .093663539 .07132975 .07398987 .11099243 .054326375 .15066529 .04449463 .19916789 .04449463 .25650025 .04449463 .310496 .053660077 .35782878 .07199097 .39849855 .09033203 .4391683 .117248538 .4707489 .15274048 .49324037 .1882426 .515742 .23132833 .5269928 .28199769 .5269928 .32966615 .5269928 .3710836 .5165761 .40625 .4957428 .4414164 .47490946 .46866355 .44432578 .48799134 .4039917 .5073293 .36366783 .5169983 .314504 .5169983 .25650025 .5169983 .20383708 .5080821 .15750122 .49024964 .117492679 .4724172 .0774943 .44608055 .046244306 .41123963 .023742676 .3764089 .0012512207 .33332826-.009994507 .28199769-.009994507M.28199769 .06300354C.31300355 .06300354 .33917237 .07083639 .36050416 .086502078 .38183595 .10216776 .3980001 .12466431 .40899659 .1539917 .42000328 .18332927 .4255066 .21816509 .4255066 .25849916 .4255066 .2954966 .42066957 .3287455 .41099549 .35824586 .40133158 .38774619 .38591514 .41116334 .3647461 .4284973 .34357707 .4458313 .31599427 .4544983 .28199769 .4544983 .2506663 .4544983 .22416687 .44674684 .20249939 .4312439 .18083191 .41575114 .16441345 .39333598 .15324402 .3639984 .14208476 .33467103 .13650513 .2995046 .13650513 .25849916 .13650513 .22216289 .14150493 .18916321 .15150452 .15950012 .1615041 .12983704 .1771698 .1063385 .19850159 .08900452 .21983338 .07167053 .2476654 .06300354 .28199769 .06300354Z"/>
<path id="font_3_223" d="M.28250123 .5269928C.3194987 .5269928 .35282899 .51990768 .38249208 .5057373 .4121653 .49157716 .43641664 .47149659 .45524598 .4454956 .47408549 .41949464 .48583476 .3886617 .49049378 .35299684H.40849305C.40550233 .37132774 .3985901 .3879954 .38775636 .40299989 .3769226 .41800437 .3626709 .43000285 .34500123 .43899537 .32733155 .44799806 .30666606 .4524994 .28300477 .4524994 .2386729 .4524994 .20267232 .43649803 .17500305 .40449525 .14733379 .37250266 .13349915 .32350669 .13349915 .25750733 .13349915 .19783528 .14625041 .15008037 .17175293 .11424255 .19725545 .07841492 .23483785 .0605011 .28450013 .0605011 .3081716 .0605011 .3287557 .065083827 .34625245 .07424927 .36374919 .08341471 .37782798 .095581058 .38848878 .11074829 .39915977 .12591553 .4059957 .14216614 .40899659 .15950012H.48950196C.48516847 .12483215 .47350059 .094828289 .4544983 .069488529 .435496 .044158937 .41124473 .024576823 .38174439 .0107421879 .35224406-.0030822755 .319163-.009994507 .28250123-.009994507 .23616536-.009994507 .19507854 .00016784668 .15924073 .020492554 .123413089 .040827436 .095331829 .07082621 .07499695 .11048889 .054662069 .15016175 .04449463 .1988322 .04449463 .25650025 .04449463 .310496 .05374654 .3577423 .072250369 .39823915 .09075419 .43874613 .117752078 .47033183 .15324402 .49299623 .18874614 .5156606 .23183187 .5269928 .28250123 .5269928Z"/>
<path id="font_3_283" d="M.5305023 0H.43249513L.27049256 .25950624 .16850281 .15400696V0H.07600403V.7429962H.16850281V.25849916L.41149903 .5169983H.51750186L.33099366 .32000733 .5305023 0Z"/>
<path id="font_3_256" d="M.29449464-.17100525C.21316529-.17100525 .1499176-.1592509 .10475159-.13574219 .05958557-.11224365 .037002565-.07866415 .037002565-.035003663 .037002565-.016337077 .04133606-.00042215983 .05000305 .012741089 .058670045 .02591451 .069000247 .036834718 .08099365 .04550171 .09299723 .0541687 .104166667 .061086019 .11450195 .06625366 .12483724 .0714213 .13150533 .07516988 .13450623 .07749939 .12884014 .080835979 .12175497 .085001628 .11325073 .08999634 .1047465 .09500122 .097325649 .10166931 .09098816 .11000061 .08466085 .11833191 .08149719 .12916565 .08149719 .14250183 .08149719 .15883892 .08916219 .1738383 .10449219 .1875 .11983236 .2011617 .14250183 .21132915 .17250061 .21800232 .14216614 .23333232 .118499759 .2536621 .101501468 .2789917 .084503177 .30433146 .07600403 .3318329 .07600403 .36149598 .07600403 .39483134 .08508301 .42383323 .10324097 .4485016 .121409099 .47316996 .14732869 .49208579 .18099976 .505249 .21467082 .5184123 .2546692 .5249939 .30099488 .5249939 .33466593 .5249939 .3630015 .52107748 .3860016 .5132446 .40900169 .5054118 .43033348 .49432884 .44999696 .47999574 .45532737 .48233543 .46374003 .48592124 .475235 .49075318 .4867401 .4955851 .49949137 .50083419 .51348879 .50650027 .52749636 .5121663 .5405833 .5175832 .55274966 .52275088 .56491598 .5279185 .5746663 .5318349 .58200076 .5345001L.5814972 .44900514 .4909973 .43200685C.4960022 .42133586 .5000865 .40966798 .5032501 .39700318 .50641378 .38433839 .5079956 .37250266 .5079956 .36149598 .5079956 .3311615 .5000763 .30366007 .48423768 .2789917 .4684092 .2543335 .44449363 .23467 .41249085 .22000122 .38049827 .20533245 .34049989 .19799805 .29249574 .19799805 .28849793 .19799805 .28341676 .19807942 .2772522 .19824219 .27108766 .19841512 .26583863 .19866944 .26150514 .19900513 .22616577 .19799805 .201828 .19407654 .18849182 .1872406 .17516582 .18041484 .16850281 .1728363 .16850281 .164505 .16850281 .15483094 .17599996 .14816284 .19099427 .14450073 .20599874 .14083863 .23150127 .13766988 .26750184 .1349945 .28050233 .1343333 .29658509 .13349915 .31575013 .13249207 .33491517 .13149517 .35616557 .13016255 .37950135 .12849427 .4338328 .12516785 .47566224 .111338298 .5049896 .087005618 .5343272 .062672939 .548996 .02983602 .548996-.011505127 .548996-.058502199 .5279948-.096832279 .48599244-.12649536 .44400025-.15616863 .38016764-.17100525 .29449464-.17100525M.31100465-.11149597C.3586731-.11149597 .39517213-.10432943 .4205017-.08999634 .4458313-.075663249 .4584961-.05399577 .4584961-.024993897 .4584961-.0046691896 .45074464 .012161255 .4352417 .025497437 .41974894 .03883362 .39616905 .046498617 .36450196 .04849243L.21949768 .057998659C.20649719 .058670045 .19299825 .055419923 .17900086 .04824829 .16500347 .041086835 .15308635 .03116862 .14324951 .018493653 .13341268 .0058288576 .12849427-.008504231 .12849427-.024505616 .12849427-.05183919 .14341228-.07317098 .17324829-.08850098 .2030843-.10383097 .2490031-.11149597 .31100465-.11149597M.29499818 .25750733C.33233134 .25750733 .3624115 .26616923 .38523866 .28349305 .40807597 .30082704 .41949464 .3264974 .41949464 .36050416 .41949464 .39517213 .40807597 .42175294 .38523866 .44024659 .3624115 .4587504 .33233134 .46800233 .29499818 .46800233 .25732932 .46800233 .22691345 .4587504 .20375061 .44024659 .18058777 .42175294 .16900635 .39517213 .16900635 .36050416 .16900635 .32783 .18000286 .30249534 .20199585 .28450013 .22399903 .2665049 .2549998 .25750733 .29499818 .25750733Z"/>
<path id="font_3_292" d="M.07600403 0V.5169983H.16549683V.44200135C.17982991 .46466575 .19949341 .48449708 .2244873 .50149539 .24949138 .51849368 .28199769 .5269928 .32200624 .5269928 .34067283 .5269928 .35975138 .52382406 .37924195 .5174866 .39874269 .51115927 .4166616 .5016632 .43299867 .4889984 .44933573 .47633363 .46200053 .46083579 .47099305 .44250489 .48699443 .46783448 .5086619 .48824565 .5359955 .5037384 .56332907 .51924136 .594162 .5269928 .62849429 .5269928 .64649966 .5269928 .66533407 .52424117 .68499758 .5187378 .7046611 .5132446 .7229106 .50358077 .7397461 .4897461 .7565816 .47591148 .7703298 .45674134 .7809906 .43223573 .79166159 .40774028 .7969971 .3763275 .7969971 .33799745V0H.70399478V.32899476C.70399478 .3603363 .69899496 .38458763 .68899539 .40174867 .6789958 .4189199 .6659139 .43100486 .64974978 .43800355 .63358566 .44500224 .6163381 .4485016 .5980072 .4485016 .5820058 .4485016 .56500247 .44533286 .5469971 .43899537 .5290019 .43266807 .5136668 .42200218 .5009918 .40699769 .48832704 .3920034 .48199464 .37150575 .48199464 .34550477V0H.3899994V.3560028C.3899994 .37633769 .38458253 .39333598 .37374879 .40699769 .36291505 .42066957 .3494161 .43100486 .33325196 .43800355 .3170878 .44500224 .30100505 .4485016 .28500367 .4485016 .26733399 .4485016 .24958293 .44500224 .23175049 .43800355 .21391805 .43100486 .19891866 .41983543 .18675232 .40449525 .17458599 .38916526 .16850281 .36950175 .16850281 .34550477V0H.07600403Z"/>
<path id="font_3_195" d="M.21949768-.009994507C.18616231-.009994507 .15666199-.004079183 .1309967 .007751465 .10533142 .019582114 .085245769 .036661786 .070739749 .05899048 .056243898 .081329349 .04899597 .10833231 .04899597 .13999939 .04899597 .19733174 .068995159 .23999532 .10899353 .2679901 .14900208 .2959951 .21317037 .31099955 .3014984 .31300355L.3939972 .31550599V.3560028C.3939972 .3876699 .38449607 .41275025 .36549378 .4312439 .34650169 .4497477 .31700135 .4588318 .2769928 .4584961 .24732971 .4584961 .22124736 .45166017 .19874573 .43798829 .1762441 .42432658 .16166179 .4019979 .15499878 .3710022H.07350159C.07550558 .4046631 .085006717 .43307496 .102005008 .4562378 .119003299 .4794108 .14275106 .49699403 .17324829 .5089874 .20374553 .520991 .23982747 .5269928 .28149415 .5269928 .3264974 .5269928 .36391703 .5206604 .39375306 .5079956 .42358909 .4953308 .44592286 .47666423 .4607544 .45199586 .47558595 .42732749 .4830017 .396993 .4830017 .36099244V0H.40400697L.39700318 .09700012C.3773295 .056666059 .3520762 .028747559 .3212433 .013244629 .29041038-.0022481282 .25649516-.009994507 .21949768-.009994507M.24749756 .056503297C.26483155 .056503297 .28207908 .05966695 .2992401 .06599426 .31641136 .07233175 .33207704 .08091736 .34623719 .0917511 .3604075 .10258484 .37182618 .11475118 .38049317 .12825012 .38916017 .14174907 .3936615 .15566509 .3939972 .16999817V.25849916L.31700135 .25700379C.27766419 .2563324 .2447459 .25224815 .21824646 .24475098 .19174703 .23725383 .1719157 .22575379 .15875244 .21025086 .14558919 .19474793 .13900757 .17433167 .13900757 .14900208 .13900757 .120000209 .14908855 .09733073 .16925049 .08099365 .18941243 .06466675 .2154948 .056503297 .24749756 .056503297Z"/>
<path id="font_3_293" d="M.07600403 0V.5169983H.16600037V.44200135C.17433167 .45633445 .18591309 .46975199 .20074463 .48225404 .21558635 .49475608 .23358663 .50483706 .25474549 .51249697 .27591453 .52016708 .30033366 .5240021 .32800294 .5240021 .3606669 .5240021 .39074708 .5175832 .4182434 .5047455 .4457499 .49191795 .46775309 .4717509 .48425294 .44424439 .50075277 .41674806 .5090027 .3813324 .5090027 .33799745V0H.4165039V.32899476C.4165039 .36932884 .4059194 .39924623 .38475038 .41874696 .36358134 .43824769 .33616639 .44799806 .3025055 .44799806 .2791697 .44799806 .25733439 .44424949 .23699951 .43675233 .21666463 .42925517 .2001648 .41792298 .1875 .40275575 .1748352 .3875885 .16850281 .36850486 .16850281 .34550477V0H.07600403Z"/>
<path id="font_3_352" d="M.26649476-.009994507C.23949687-.009668986 .21408081-.00575765 .19024658 .001739502 .16641236 .009246826 .14532979 .020334879 .1269989 .035003663 .10866801 .049672445 .09424845 .06792196 .083740238 .0897522 .07324219 .111582439 .067993167 .13699849 .067993167 .16600037V.5169983H.1605072V.17550659C.1605072 .14183553 .17092388 .114496868 .1917572 .0934906 .21259053 .07249451 .2440033 .06199646 .28599549 .06199646 .32400004 .06199646 .35458375 .07191467 .37774659 .0917511 .4009196 .111587528 .4125061 .14116924 .4125061 .18049622V.5169983H.50450137V0H.43099977L.42149354 .09899902C.41516624 .07299805 .40441896 .051996869 .3892517 .035995485 .37408448 .0199941 .35591636 .008244832 .3347473 .00074768069 .31357829-.006749471 .29082743-.0103302 .26649476-.009994507Z"/>
<path id="font_3_196" d="M.21949768-.009994507C.18616231-.009994507 .15666199-.004079183 .1309967 .007751465 .10533142 .019582114 .085245769 .036661786 .070739749 .05899048 .056243898 .081329349 .04899597 .10833231 .04899597 .13999939 .04899597 .19733174 .068995159 .23999532 .10899353 .2679901 .14900208 .2959951 .21317037 .31099955 .3014984 .31300355L.3939972 .31550599V.3560028C.3939972 .3876699 .38449607 .41275025 .36549378 .4312439 .34650169 .4497477 .31700135 .4588318 .2769928 .4584961 .24732971 .4584961 .22124736 .45166017 .19874573 .43798829 .1762441 .42432658 .16166179 .4019979 .15499878 .3710022H.07350159C.07550558 .4046631 .085006717 .43307496 .102005008 .4562378 .119003299 .4794108 .14275106 .49699403 .17324829 .5089874 .20374553 .520991 .23982747 .5269928 .28149415 .5269928 .3264974 .5269928 .36391703 .5206604 .39375306 .5079956 .42358909 .4953308 .44592286 .47666423 .4607544 .45199586 .47558595 .42732749 .4830017 .396993 .4830017 .36099244V0H.40400697L.39700318 .09700012C.3773295 .056666059 .3520762 .028747559 .3212433 .013244629 .29041038-.0022481282 .25649516-.009994507 .21949768-.009994507M.24749756 .056503297C.26483155 .056503297 .28207908 .05966695 .2992401 .06599426 .31641136 .07233175 .33207704 .08091736 .34623719 .0917511 .3604075 .10258484 .37182618 .11475118 .38049317 .12825012 .38916017 .14174907 .3936615 .15566509 .3939972 .16999817V.25849916L.31700135 .25700379C.27766419 .2563324 .2447459 .25224815 .21824646 .24475098 .19174703 .23725383 .1719157 .22575379 .15875244 .21025086 .14558919 .19474793 .13900757 .17433167 .13900757 .14900208 .13900757 .120000209 .14908855 .09733073 .16925049 .08099365 .18941243 .06466675 .2154948 .056503297 .24749756 .056503297M.34750367 .7230072H.4524994L.31600953 .5774994H.24450684L.34750367 .7230072Z"/>
</defs>
<g>
<g id="layer_1" data-name="Layer 1">
<g clip-path="url(#clip_1)">
<path transform="matrix(5,0,0,-5,60.039064,270.19508)" d="M0 0V-60.04C0-81.91 18.342-102.327 48.026-113.683 77.709-102.327 96.052-81.91 96.052-60.04L96.07 0ZM48.026-126.476 45.981-125.735C10.212-112.777-12.008-87.604-12.008-60.04V12.008H108.083L108.06-60.042C108.06-87.604 85.84-112.777 50.071-125.735Z" fill="#2b2f31"/>
<path transform="matrix(5,0,0,-5,465.34156,165.12)" d="M0 0H-12.008C-12.008 11.588-21.436 21.016-33.024 21.016-44.613 21.016-54.04 11.588-54.04 0H-66.049C-66.049 18.21-51.234 33.024-33.024 33.024-14.814 33.024 0 18.21 0 0" fill="#2b2f31"/>
<path transform="matrix(5,0,0,-5,-1607.2485,1797.7424)" d="M0 0V538.583" fill="#ffffff"/>
<path transform="matrix(5,0,0,-5,-1607.2485,1797.7424)" stroke-width="1" stroke-linecap="butt" stroke-miterlimit="10" stroke-linejoin="miter" fill="none" stroke="#231f20" d="M0 0V538.583"/>
</g>
<use data-text="&#xfb02;" xlink:href="#font_2_397" transform="matrix(0,-125,-125,-0,-1746.247,1656.018)" fill="#2b2f31"/>
<use data-text="o" xlink:href="#font_2_300" transform="matrix(0,-125,-125,-0,-1746.247,1566.393)" fill="#2b2f31"/>
<use data-text="c" xlink:href="#font_2_223" transform="matrix(0,-125,-125,-0,-1746.247,1495.393)" fill="#2b2f31"/>
<use data-text="k" xlink:href="#font_2_283" transform="matrix(0,-125,-125,-0,-1746.247,1427.893)" fill="#2b2f31"/>
<use data-text="l" xlink:href="#font_3_286" transform="matrix(0,-125,-125,-0,-1746.247,1355.518)" fill="#2b2f31"/>
<use data-text="o" xlink:href="#font_3_300" transform="matrix(0,-125,-125,-0,-1746.247,1319.393)" fill="#2b2f31"/>
<use data-text="c" xlink:href="#font_3_223" transform="matrix(0,-125,-125,-0,-1746.247,1249.143)" fill="#2b2f31"/>
<use data-text="k" xlink:href="#font_3_283" transform="matrix(0,-125,-125,-0,-1746.247,1181.768)" fill="#2b2f31"/>
<use data-text="l" xlink:href="#font_3_286" transform="matrix(0,-125,-125,-0,-1768.372,-72.857059)" fill="#2b2f31"/>
<use data-text="o" xlink:href="#font_3_300" transform="matrix(0,-125,-125,-0,-1768.372,-108.98181)" fill="#2b2f31"/>
<use data-text="g" xlink:href="#font_3_256" transform="matrix(0,-125,-125,-0,-1768.372,-178.79431)" fill="#2b2f31"/>
<use data-text="o" xlink:href="#font_3_300" transform="matrix(0,-125,-125,-0,-1768.372,-254.35681)" fill="#2b2f31"/>
<use data-text="m" xlink:href="#font_3_292" transform="matrix(0,-125,-125,-0,-1768.372,-324.6068)" fill="#2b2f31"/>
<use data-text="a" xlink:href="#font_3_195" transform="matrix(0,-125,-125,-0,-1768.372,-432.5443)" fill="#2b2f31"/>
<use data-text="n" xlink:href="#font_3_293" transform="matrix(0,-125,-125,-0,-1768.372,-503.0443)" fill="#2b2f31"/>
<use data-text="u" xlink:href="#font_3_352" transform="matrix(0,-125,-125,-0,-1768.372,-574.1068)" fill="#2b2f31"/>
<use data-text="&#x00e1;" xlink:href="#font_3_196" transform="matrix(0,-125,-125,-0,-1768.372,-645.6068)" fill="#2b2f31"/>
<use data-text="l" xlink:href="#font_3_286" transform="matrix(0,-125,-125,-0,-1768.372,-716.10659)" fill="#2b2f31"/>
</g>
</g>
</svg>
